# xmcd
#
# Track frame offsets:
#	150
#	14887
#	29037
#	53085
#	64150
#	79217
#	95517
#	115382
#	129560
#
# Disc length: 1942 seconds
#
# Revision: 1
# Processed by: cddbd v1.4PL0 Copyright (c) Steve Scherf et al.
# Submitted via: audiograbber 1.81.02
#
DISCID=81079409
DTITLE=Midnight Rodeo - For All The Right Reasons
DYEAR=1995
DGENRE=Country
TTITLE0=It's The Little Things
TTITLE1=Tarrytown
TTITLE2=For All The Right Reasons
TTITLE3=I'm Drinkin'
TTITLE4=You Got Me Lookin'
TTITLE5=Get Away
TTITLE6=Goodbye
TTITLE7=Cool Blue Eyes
TTITLE8=I Don't Want To Fall In Love
EXTD=
EXTT0=
EXTT1=
EXTT2=
EXTT3=
EXTT4=
EXTT5=
EXTT6=
EXTT7=
EXTT8=
PLAYORDER=
